<svg width="97" height="75" viewBox="0 0 97 75" fill="none" xmlns="http://www.w3.org/2000/svg">
<path d="M6.09546 12.3099L21.1471 0.206787L35.2739 12.478L33.508 16.6804L20.979 10.7129L7.44087 15.2516L6.09546 12.3099ZM0.041153 18.9498H40.235L34.6012 70.9762L5.25459 72.9934L0.041153 18.9498ZM13.9997 63.2437L27.9582 61.1425L31.574 29.54L9.37488 31.1369L13.9997 63.2437ZM57.628 40.4664L57.0394 74.9266L48.5466 74.5904L52.2464 40.3823L57.628 40.4664ZM58.8052 36.0958H51.9101L51.4896 28.0271L59.478 28.5314L58.8052 36.0958ZM96.7077 67.6143L96.96 67.6983L96.5395 72.9934L91.5784 72.8253L62.4841 73.5818L62.1477 50.6363L83.3378 52.0652V45.0891L68.7906 45.6774L68.3702 39.9621L89.4762 36.0118L92.8397 66.1014L96.7077 67.6143ZM83.3378 58.3688H69.127L70.3042 67.4462L82.7492 67.8664L83.3378 58.3688Z" fill="black"/>
</svg>
